<?xml version="1.0" encoding="utf-8"?>
<!DOCTYPE svg PUBLIC "-//W3C//DTD SVG 1.1//EN" "http://www.w3.org/Graphics/SVG/1.1/DTD/svg11.dtd">
<svg version="1.1" id="GraphQL_Logo"
	xmlns="http://www.w3.org/2000/svg"
	xmlns:xlink="http://www.w3.org/1999/xlink" x="0px" y="0px" viewBox="0 0 1635 400" enable-background="new 0 0 1635 400" xml:space="preserve">
	<defs>
		<svg id="graphql" x="0" y="0" viewBox="0 0 400 400">
			<g>
				<g>
					<g>
						<rect x="122" y="-0.4" transform="matrix(-0.866 -0.5 0.5 -0.866 163.3196 363.3136)" fill="#E535AB" width="16.6" height="320.3" />
					</g>
				</g>
				<g>
					<g>
						<rect x="39.8" y="272.2" fill="#E535AB" width="320.3" height="16.6" />
					</g>
				</g>
				<g>
					<g>
						<rect x="37.9" y="312.2" transform="matrix(-0.866 -0.5 0.5 -0.866 83.0693 663.3409)" fill="#E535AB" width="185" height="16.6" />
					</g>
				</g>
				<g>
					<g>
						<rect x="177.1" y="71.1" transform="matrix(-0.866 -0.5 0.5 -0.866 463.3409 283.0693)" fill="#E535AB" width="185" height="16.6" />
					</g>
				</g>
				<g>
					<g>
						<rect x="122.1" y="-13" transform="matrix(-0.5 -0.866 0.866 -0.5 126.7903 232.1221)" fill="#E535AB" width="16.6" height="185" />
					</g>
				</g>
				<g>
					<g>
						<rect x="109.6" y="151.6" transform="matrix(-0.5 -0.866 0.866 -0.5 266.0828 473.3766)" fill="#E535AB" width="320.3" height="16.6" />
					</g>
				</g>
				<g>
					<g>
						<rect x="52.5" y="107.5" fill="#E535AB" width="16.6" height="185" />
					</g>
				</g>
				<g>
					<g>
						<rect x="330.9" y="107.5" fill="#E535AB" width="16.6" height="185" />
					</g>
				</g>
				<g>
					<g>
						<rect x="262.4" y="240.1" transform="matrix(-0.5 -0.866 0.866 -0.5 126.7953 714.2875)" fill="#E535AB" width="14.5" height="160.9" />
					</g>
				</g>
				<path fill="#E535AB" d="M369.5,297.9c-9.6,16.7-31,22.4-47.7,12.8c-16.7-9.6-22.4-31-12.8-47.7c9.6-16.7,31-22.4,47.7-12.8C373.5,259.9,379.2,281.2,369.5,297.9" />
				<path fill="#E535AB" d="M90.9,137c-9.6,16.7-31,22.4-47.7,12.8c-16.7-9.6-22.4-31-12.8-47.7c9.6-16.7,31-22.4,47.7-12.8C94.8,99,100.5,120.3,90.9,137" />
				<path fill="#E535AB" d="M30.5,297.9c-9.6-16.7-3.9-38,12.8-47.7c16.7-9.6,38-3.9,47.7,12.8c9.6,16.7,3.9,38-12.8,47.7C61.4,320.3,40.1,314.6,30.5,297.9" />
				<path fill="#E535AB" d="M309.1,137c-9.6-16.7-3.9-38,12.8-47.7c16.7-9.6,38-3.9,47.7,12.8c9.6,16.7,3.9,38-12.8,47.7C340.1,159.4,318.7,153.7,309.1,137" />
				<path fill="#E535AB" d="M200,395.8c-19.3,0-34.9-15.6-34.9-34.9c0-19.3,15.6-34.9,34.9-34.9c19.3,0,34.9,15.6,34.9,34.9C234.9,380.1,219.3,395.8,200,395.8" />
				<path fill="#E535AB" d="M200,74c-19.3,0-34.9-15.6-34.9-34.9c0-19.3,15.6-34.9,34.9-34.9c19.3,0,34.9,15.6,34.9,34.9C234.9,58.4,219.3,74,200,74" />
			</g>
		</svg>

		<svg id="database" width="1792" height="1792" viewBox="0 0 1792 1792">
			<path d="M896 768q237 0 443-43t325-127v170q0 69-103 128t-280 93.5-385 34.5-385-34.5-280-93.5-103-128v-170q119 84 325 127t443 43zm0 768q237 0 443-43t325-127v170q0 69-103 128t-280 93.5-385 34.5-385-34.5-280-93.5-103-128v-170q119 84 325 127t443 43zm0-384q237 0 443-43t325-127v170q0 69-103 128t-280 93.5-385 34.5-385-34.5-280-93.5-103-128v-170q119 84 325 127t443 43zm0-1152q208 0 385 34.5t280 93.5 103 128v128q0 69-103 128t-280 93.5-385 34.5-385-34.5-280-93.5-103-128v-128q0-69 103-128t280-93.5 385-34.5z"/>
		</svg>

		<svg id="arrow" width="410" height="55">
			<polyline fill="none" stroke-width="12" stroke-linecap="round" stroke-linejoin="round" points="0,27 365,27 340,2 365,27 340,53" />
		</svg>

	</defs>

	<!-- <path fill="none" stroke="#7AA20D" stroke-width="1" d="m0,0h1635v400h-1635v-400"/> -->

	<use x="-25" y="-5" width="410" height="410" href="#graphql" />
	<use x="1260" y="0" width="400" height="400" fill="#4B0082" href="#database" />
	<use x="380" y="173" stroke="#E535AB" href="#arrow" />
	<use x="880" y="173" stroke="#4B0082" href="#arrow" />
	<text x="775" y="230" fill="#353535" font-size="100" font-family="Rubik,Helvetica Neue,Helvetica,Arial,sans-serif">to</text>
	<text x="390" y="130" fill="#E535AB" font-size="150" font-family="Rubik,Helvetica Neue,Helvetica,Arial,sans-serif">GraphQL</text>
	<text x="815" y="375" fill="#4B0082" font-size="150" font-family="Rubik,Helvetica Neue,Helvetica,Arial,sans-serif">T-SQL</text>

</svg>